<svg t="1702274441931" class="icon" viewBox="0 0 1024 1024" version="1.1" xmlns="http://www.w3.org/2000/svg" p-id="1145" width="200" height="200"><path d="M512 512m-512 0a512 512 0 1 0 1024 0 512 512 0 1 0-1024 0Z" fill="#5D49FE" p-id="1146"></path><path d="M324.408781 655.018925C505.290126 655.018925 651.918244 508.387706 651.918244 327.509463c0-152.138029-103.733293-280.047334-244.329811-316.853972C205.813923 52.463528 47.497011 213.017581 8.987325 415.981977 47.587706 553.880127 174.183098 655.018925 324.408781 655.018925z" fill="#FFFFFF" fill-opacity=".2" p-id="1147"></path><path d="M512 1024c282.766631 0 512-229.233369 512-512 0-31.765705-2.891385-62.853911-8.433853-93.018889C928.057169 336.0999 809.874701 285.26268 679.824375 285.26268c-269.711213 0-488.357305 218.645317-488.357305 488.357305 0 54.959576 9.084221 107.802937 25.822474 157.10377C300.626556 989.489417 402.283167 1024 512 1024z" fill="#FFFFFF" fill-opacity=".15" p-id="1148"></path><path d="M732.535958 756.566238c36.389596 0 65.889478-29.499882 65.889477-65.889478 0 36.389596 29.502983 65.889478 65.889478 65.889478-17.053747 0-65.889478 29.502983-65.889478 65.889477 0-36.386495-29.499882-65.889478-65.889477-65.889477zM159.685087 247.279334c25.686819 0 46.51022-20.8234 46.51022-46.51022 0 25.686819 20.8234 46.51022 46.510219 46.51022-12.03607 0-46.51022 20.8234-46.510219 46.510219 0-25.686819-20.8234-46.51022-46.51022-46.510219z" fill="#FFFFFF" fill-opacity=".5" p-id="1149"></path><path d="M206.195307 333.32324c8.562531 0 15.503407-6.940875 15.503406-15.503407 0 8.562531 6.940875 15.503407 15.503407 15.503407-4.012282 0-15.503407 6.940875-15.503407 15.503406 0-8.562531-6.940875-15.503407-15.503406-15.503406z" fill="#FFFFFF" fill-opacity=".3" p-id="1150"></path><path d="M299.990916 296.115064c-19.264533 0-34.882665 15.617357-34.882665 34.882665v308.51779c0 19.265308 15.618132 34.882665 34.882665 34.882664h31.340136c2.222413 0.20387 4.468857 0.307743 6.746308 0.307743h114.355452l40.327461 43.094819c11.784914 12.570937 31.769581 12.390322 43.312641-0.420918l38.437596-42.673901h112.187301c2.27745 0 4.523894-0.103873 6.746307-0.307743H724.784254c19.264533 0 34.882665-15.617357 34.882665-34.882664V330.997729c0-19.265308-15.618132-34.882665-34.882665-34.882665H299.990916z" fill="#FFFFFF" p-id="1151"></path><path d="M377.120363 480.218017m-36.82059 0a36.82059 36.82059 0 1 0 73.641181 0 36.82059 36.82059 0 1 0-73.641181 0Z" fill="#7564FE" p-id="1152"></path><path d="M515.875852 480.218017m-36.820591 0a36.82059 36.82059 0 1 0 73.641181 0 36.82059 36.82059 0 1 0-73.641181 0Z" fill="#7564FE" p-id="1153"></path><path d="M654.63134 480.218017m-36.820591 0a36.82059 36.82059 0 1 0 73.641181 0 36.82059 36.82059 0 1 0-73.641181 0Z" fill="#7564FE" p-id="1154"></path></svg>