<svg t="1702275326304" class="icon" viewBox="0 0 1024 1024" version="1.1" xmlns="http://www.w3.org/2000/svg" p-id="1591" width="32" height="32"><path d="M512 512m-512 0a512 512 0 1 0 1024 0 512 512 0 1 0-1024 0Z" fill="#FEB833" p-id="1592"></path><path d="M324.408781 655.018925C505.290126 655.018925 651.918244 508.387706 651.918244 327.509463c0-152.138029-103.733293-280.047334-244.329811-316.853972C205.813923 52.463528 47.497011 213.017581 8.987325 415.981977 47.587706 553.880127 174.183098 655.018925 324.408781 655.018925z" fill="#FFFFFF" fill-opacity=".2" p-id="1593"></path><path d="M512 1024c282.766631 0 512-229.233369 512-512 0-31.765705-2.891385-62.853911-8.433853-93.018889C928.057169 336.0999 809.874701 285.26268 679.824375 285.26268c-269.711213 0-488.357305 218.645317-488.357305 488.357305 0 54.959576 9.084221 107.802937 25.822474 157.10377C300.626556 989.489417 402.283167 1024 512 1024z" fill="#FFFFFF" fill-opacity=".15" p-id="1594"></path><path d="M732.535958 756.566238c36.389596 0 65.889478-29.499882 65.889477-65.889478 0 36.389596 29.502983 65.889478 65.889478 65.889478-17.053747 0-65.889478 29.502983-65.889478 65.889477 0-36.386495-29.499882-65.889478-65.889477-65.889477zM159.685087 247.279334c25.686819 0 46.51022-20.8234 46.51022-46.51022 0 25.686819 20.8234 46.51022 46.510219 46.51022-12.03607 0-46.51022 20.8234-46.510219 46.510219 0-25.686819-20.8234-46.51022-46.51022-46.510219z" fill="#FFFFFF" fill-opacity=".5" p-id="1595"></path><path d="M206.195307 333.32324c8.562531 0 15.503407-6.940875 15.503406-15.503407 0 8.562531 6.940875 15.503407 15.503407 15.503407-4.012282 0-15.503407 6.940875-15.503407 15.503406 0-8.562531-6.940875-15.503407-15.503406-15.503406z" fill="#FFFFFF" fill-opacity=".3" p-id="1596"></path><path d="M435.796881 241.077971m28.681302 0l92.190232 0q28.681302 0 28.681302 28.681302l0 50.691489q0 28.681302-28.681302 28.681302l-92.190232 0q-28.681302 0-28.681302-28.681302l0-50.691489q0-28.681302 28.681302-28.681302Z" fill="#FFFFFF" p-id="1597"></path><path d="M713.438861 363.718444l39.280206-17.366141c3.441756-1.520109 3.944842-6.195936 0.90695-8.416024l-54.678965-39.943752c-3.037893-2.220088-7.339313-0.318595-7.741626 3.422377l-4.390565 40.756905-57.75794 79.062722 27.622419 20.180009 56.759521-77.696096z" fill="#FFFFFF" p-id="1598"></path><path d="M510.1799 539.400721m-244.296478 0a244.296478 244.296478 0 1 0 488.592957 0 244.296478 244.296478 0 1 0-488.592957 0Z" fill="#FFFFFF" p-id="1599"></path><path d="M510.177575 369.881048c9.729938 0 17.617296 7.888133 17.617296 17.618071v140.842247l95.586252 54.058053c8.468736 4.789777 11.451591 15.538289 6.661814 24.0078-4.789777 8.468736-15.538289 11.451591-24.007025 6.661814l-104.530943-59.11604a17.619621 17.619621 0 0 1-8.94469-15.335194V387.499119c0-9.729938 7.887358-17.618071 17.617296-17.618071z" fill="#FEC351" p-id="1600"></path><path d="M510.964372 542.533184m-39.932899 0a39.932899 39.932899 0 1 0 79.865799 0 39.932899 39.932899 0 1 0-79.865799 0Z" fill="#FEC351" p-id="1601"></path></svg>